<svg xmlns="http://www.w3.org/2000/svg" height="20px" viewBox="0 -960 960 960" width="20px" fill="#e3e3e3"><path d="M222.23-158.23q-49.69-50.31-77.96-116.11Q116-340.15 116-415.89q0-75.88 28.42-141.75t78.21-115.68q49.79-49.81 116.13-78.25Q405.1-780 480.43-780q75.34 0 141.21 28.43t115.68 78.24q49.81 49.81 78.25 115.67Q844-491.8 844-415.94q0 75.71-28.27 141.86-28.27 66.16-78.96 115.85L700-195.38q43-41.93 67.5-98.83T792-416q0-130-91-221t-221-91q-130 0-221 91t-91 221q0 65 24.5 121.5T259-195l-36.77 36.77Zm102-102q-29.69-30.31-46.96-70.16Q260-370.25 260-416q0-91.67 64.14-155.83Q388.28-636 479.91-636q91.63 0 155.86 64.21Q700-507.58 700-415.85q0 45.62-17.27 85.77-17.27 40.16-47.96 69.85L599-297q23-23 36-53.5t13-65.5q0-70-49-119t-119-49q-70 0-119 49t-49 119q0 35 13 65.5t36 53.5l-36.77 36.77Zm119-119Q428-394.46 428-416q0-21.54 15.23-36.77Q458.46-468 480-468q21.54 0 36.77 15.23Q532-437.54 532-416q0 21.54-15.23 36.77Q501.54-364 480-364q-21.54 0-36.77-15.23Z"/></svg>