<?xml version="1.0" standalone="no"?>
<!DOCTYPE svg PUBLIC "-//W3C//DTD SVG 20010904//EN"
 "http://www.w3.org/TR/2001/REC-SVG-20010904/DTD/svg10.dtd">
<svg version="1.0" xmlns="http://www.w3.org/2000/svg"
 width="512.000000pt" height="512.000000pt" viewBox="0 0 512.000000 512.000000"
 preserveAspectRatio="xMidYMid meet">

<g transform="translate(0.000000,512.000000) scale(0.100000,-0.100000)"
fill="#000000" stroke="none">
<path d="M2525 4168 c-45 -24 -45 -24 -45 -397 l0 -355 -178 177 c-183 182
-197 191 -245 165 -32 -17 -46 -39 -47 -73 0 -25 33 -63 235 -265 l235 -236 0
-59 0 -60 -213 -213 -212 -212 -45 0 -44 0 -226 225 c-202 200 -230 225 -259
225 -18 0 -41 -4 -51 -10 -26 -14 -41 -65 -29 -98 5 -15 81 -98 167 -184 l157
-158 -363 0 c-214 0 -371 -4 -381 -10 -10 -5 -24 -23 -31 -40 -15 -35 0 -84
31 -100 10 -6 167 -10 381 -10 l363 0 -157 -157 c-86 -87 -162 -170 -167 -185
-12 -33 3 -84 29 -98 10 -6 33 -10 51 -10 30 0 57 24 259 225 l226 225 44 0
45 0 213 -213 212 -212 0 -60 0 -59 -235 -236 c-161 -162 -235 -243 -235 -258
0 -52 40 -92 92 -92 15 0 80 58 200 177 l178 177 0 -353 c0 -206 4 -360 10
-370 5 -10 23 -24 40 -31 35 -15 84 0 100 31 6 10 10 164 10 370 l0 353 178
-177 c153 -152 183 -177 209 -177 41 0 83 42 83 83 0 27 -31 62 -235 267
l-235 236 0 59 0 60 213 213 212 212 45 0 44 0 226 -225 c202 -201 229 -225
259 -225 18 0 41 4 51 10 26 14 41 65 29 98 -5 15 -81 98 -167 185 l-157 157
363 0 c214 0 371 4 381 10 10 5 24 23 31 40 15 35 0 84 -31 100 -10 6 -167 10
-381 10 l-363 0 157 158 c86 86 162 169 167 184 12 33 -3 84 -29 98 -10 6 -33
10 -51 10 -30 0 -57 -24 -259 -225 l-226 -225 -44 0 -45 0 -213 213 -212 212
0 60 0 59 235 236 c161 162 235 243 235 258 0 52 -40 92 -92 92 -15 0 -80 -58
-200 -177 l-178 -177 0 351 c0 193 -3 359 -6 368 -7 17 -54 45 -76 45 -7 0
-22 -6 -33 -12z m215 -1433 l175 -175 -178 -178 -177 -177 -177 177 -178 178
175 175 c96 96 177 175 180 175 3 0 84 -79 180 -175z"/>
<path d="M1790 3367 c-32 -16 -52 -55 -45 -87 4 -14 66 -85 143 -162 127 -129
139 -138 174 -138 50 0 78 28 78 78 0 35 -9 47 -137 174 -78 77 -149 139 -163
143 -14 3 -36 -1 -50 -8z"/>
<path d="M3264 3371 c-11 -5 -86 -79 -167 -165 -136 -145 -147 -159 -147 -195
0 -48 32 -81 81 -81 30 0 45 11 132 102 186 195 211 226 211 264 0 56 -59 96
-110 75z"/>
<path d="M2951 2144 c-42 -54 -31 -79 81 -187 193 -184 227 -211 263 -211 54
0 92 48 79 100 -4 14 -75 89 -165 174 -149 140 -162 150 -199 150 -30 0 -43
-6 -59 -26z"/>
<path d="M1885 2000 c-127 -127 -139 -142 -139 -175 0 -47 32 -79 79 -79 33 0
48 12 175 139 130 130 140 142 140 177 0 25 -7 45 -20 58 -13 13 -33 20 -58
20 -35 0 -47 -10 -177 -140z"/>
</g>
</svg>
