<?xml version="1.0" encoding="UTF-8"?>
<svg version="1.1" xmlns="http://www.w3.org/2000/svg" width="223" height="234">
<path d="M0 0 C73.59 0 147.18 0 223 0 C223 77.22 223 154.44 223 234 C149.41 234 75.82 234 0 234 C0 156.78 0 79.56 0 0 Z " fill="#F5F5F5" transform="translate(0,0)"/>
<path d="M0 0 C3.13112879 2.01783855 4.76077815 3.70672231 6.8125 6.8125 C8.08679388 15.46257963 6.49921119 24.3168565 4.8125 32.8125 C4.5669762 34.1415529 4.32360776 35.4710052 4.08203125 36.80078125 C3.08533799 42.25071768 2.08226755 47.68311622 0.8203125 53.078125 C-0.39213216 58.46542077 -1.10262691 63.90245797 -1.8125 69.375 C-2.01359375 70.88803711 -2.01359375 70.88803711 -2.21875 72.43164062 C-2.54517504 74.89148648 -2.86802108 77.35174407 -3.1875 79.8125 C6.47484879 70.21690318 13.96668392 60.07930049 21.078125 48.50390625 C36.18482614 24.05056832 36.18482614 24.05056832 44.1796875 20.87109375 C48.82092132 20.00379248 52.41579805 20.87479775 56.3046875 23.515625 C59.9931633 26.68809642 61.64846021 29.50018171 62.25 34.3125 C61.26896711 42.16076313 56.6445874 46.74604942 50.66992188 51.46289062 C45.96534792 54.88125088 40.90605245 57.78750512 35.9296875 60.78759766 C17.71330162 71.0226357 17.71330162 71.0226357 3.8125 85.8125 C18.7260026 85.05450749 32.95478897 82.0101803 47.4362793 78.55664062 C71.15197348 73.01951535 71.15197348 73.01951535 78.5 77.5625 C83.57456999 82.49991945 83.57456999 82.49991945 84.28125 86.3984375 C84.37603591 94.85808011 84.37603591 94.85808011 81.5625 98.375 C75.40950675 103.82878947 69.06895265 103.52715911 61.16455078 103.06396484 C56.23896505 102.53735562 51.51635636 101.17929039 46.74804688 99.8815918 C32.81519438 96.11054271 18.25725077 93.4337796 3.8125 92.8125 C12.45349239 104.46443485 27.30970259 112.54718247 39.5234375 120.125 C58.79689744 132.12657962 58.79689744 132.12657962 61.8125 139.8125 C62.56563436 145.40721237 61.21476236 148.52931622 58.296875 153.11328125 C56.02580431 155.71305953 53.87480248 156.60835003 50.515625 157.25390625 C45.79574089 157.48689416 42.55992101 157.21133362 38.8125 154.1875 C30.65223048 146.02723048 24.67327697 135.71471142 18.73828125 125.90234375 C9.4548436 110.79026014 9.4548436 110.79026014 -3.1875 98.8125 C-1.27676007 113.4517823 0.79830428 127.96217655 4.14916992 142.34985352 C9.44976386 165.14726652 9.44976386 165.14726652 5.125 174.4375 C1.40993785 178.25296923 -0.75027903 179.65280878 -6.125 180.25 C-10.43772561 180.05507455 -12.92329761 178.7057703 -16.1875 175.8125 C-20.62202438 169.86090149 -20.92916262 164.89271756 -19.87060547 157.6418457 C-19.43756033 155.43635441 -18.94884702 153.2511311 -18.4375 151.0625 C-18.06878149 149.38965964 -17.70165127 147.71646857 -17.3359375 146.04296875 C-17.14612305 145.18364746 -16.95630859 144.32432617 -16.76074219 143.43896484 C-13.59891862 128.95221105 -11.39402396 114.59241852 -10.1875 99.8125 C-22.00489694 108.60247193 -29.53792609 123.30919575 -37.3046875 135.57714844 C-48.76898006 153.60324003 -48.76898006 153.60324003 -55.1875 156.8125 C-59.55220475 157.31173094 -64.16946356 157.8393594 -68.17578125 155.80078125 C-71.21075114 153.29297734 -73.83937632 150.54695689 -74.62890625 146.61328125 C-74.864456 141.77311384 -74.58208072 138.56022189 -71.4375 134.75 C-63.13480528 126.49672608 -53.16737244 120.47744288 -43.28417969 114.3449707 C-35.68197297 109.58787842 -27.73197815 104.51190354 -21.46875 98.03515625 C-20.1875 96.8125 -20.1875 96.8125 -18.1875 96.8125 C-18.1875 96.1525 -18.1875 95.4925 -18.1875 94.8125 C-17.5275 94.8125 -16.8675 94.8125 -16.1875 94.8125 C-16.1875 94.1525 -16.1875 93.4925 -16.1875 92.8125 C-31.89309901 94.1744209 -46.91625032 96.55055196 -62.16235352 100.47485352 C-82.40581337 105.47315606 -82.40581337 105.47315606 -90.3828125 101.80224609 C-93.47805007 99.30979483 -95.96670659 96.29297791 -96.55859375 92.32421875 C-96.75999874 83.75858305 -96.75999874 83.75858305 -93.9375 80.25 C-88.62541237 75.5415587 -84.69490086 75.45605884 -77.72753906 75.56787109 C-72.16429659 75.95231033 -66.94673713 77.22793107 -61.5625 78.625 C-46.53471631 82.30243526 -31.65473566 85.00720407 -16.1875 85.8125 C-27.53834266 74.26075747 -40.90259465 65.80756256 -54.43359375 57.0703125 C-71.11973475 46.23091416 -71.11973475 46.23091416 -74.1875 38.8125 C-74.8377915 35.0476545 -75.04968337 31.38101051 -73.171875 27.96484375 C-70.61934909 24.83569301 -68.0040672 22.04957741 -63.8828125 21.51171875 C-56.60758844 21.47854904 -53.16894907 22.83503115 -47.9140625 27.859375 C-43.96271869 31.83639356 -41.13275672 36.21706947 -38.25 41 C-37.20540754 42.69071033 -36.15983489 44.38081544 -35.11328125 46.0703125 C-34.36232178 47.29089355 -34.36232178 47.29089355 -33.59619141 48.53613281 C-28.31643682 57.06792341 -22.57276255 65.07238133 -16.1875 72.8125 C-15.49140625 73.71097656 -14.7953125 74.60945313 -14.078125 75.53515625 C-12.39067946 77.87862737 -12.39067946 77.87862737 -10.1875 78.8125 C-10.63436079 68.27489897 -12.00862207 58.26512072 -14.125 47.9375 C-14.39342484 46.5887099 -14.66100492 45.2397514 -14.92773438 43.890625 C-15.99141479 38.54427341 -17.08044769 33.21152341 -18.3515625 27.91015625 C-19.31113634 23.63892523 -19.58921592 19.49463355 -19.625 15.125 C-19.65787109 14.40505859 -19.69074219 13.68511719 -19.72460938 12.94335938 C-19.76488268 8.9270124 -19.36026699 6.53560203 -16.77734375 3.37890625 C-11.65562313 -1.69646396 -6.94976105 -2.58912666 0 0 Z " fill="#373637" transform="translate(117.1875,29.1875)"/>
</svg>
